<?xml version="1.0" encoding="UTF-8"?>
<svg id="Layer_1" data-name="Layer 1" xmlns="http://www.w3.org/2000/svg" width="434.55" height="78.01" viewBox="0 0 434.55 78.01">
  <path d="M61.77,62.44V9.47h18.25c4.12,0,7.26.25,9.43.76,3.04.7,5.62,1.96,7.77,3.79,2.79,2.36,4.88,5.38,6.27,9.05,1.38,3.67,2.08,7.87,2.08,12.59,0,4.02-.47,7.59-1.41,10.7s-2.14,5.68-3.61,7.71c-1.47,2.04-3.08,3.64-4.82,4.81-1.75,1.17-3.85,2.05-6.32,2.66-2.47.6-5.31.9-8.51.9h-19.11ZM68.78,56.19h11.31c3.49,0,6.23-.33,8.22-.98s3.57-1.57,4.75-2.75c1.66-1.66,2.96-3.9,3.88-6.7.93-2.81,1.39-6.21,1.39-10.21,0-5.54-.91-9.8-2.73-12.77-1.82-2.97-4.03-4.97-6.63-5.98-1.88-.72-4.9-1.08-9.07-1.08h-11.13v40.47Z" style="fill: #ffb500;"/>
  <path d="M114.42,16.95v-7.48h6.5v7.48h-6.5ZM114.42,62.44V24.07h6.5v38.37h-6.5Z" style="fill: #ffb500;"/>
  <path d="M129.63,65.62l6.32.94c.26,1.95,1,3.37,2.2,4.26,1.61,1.2,3.82,1.81,6.61,1.81,3.01,0,5.34-.6,6.97-1.81,1.64-1.21,2.75-2.89,3.32-5.06.34-1.33.49-4.11.47-8.35-2.84,3.35-6.38,5.02-10.62,5.02-5.28,0-9.36-1.9-12.25-5.71-2.89-3.81-4.34-8.37-4.34-13.69,0-3.66.66-7.04,1.99-10.14,1.32-3.09,3.25-5.49,5.76-7.17,2.52-1.69,5.47-2.53,8.87-2.53,4.53,0,8.26,1.83,11.2,5.49v-4.62h6v33.17c0,5.97-.61,10.21-1.82,12.7-1.22,2.49-3.14,4.46-5.78,5.91s-5.88,2.17-9.74,2.17c-4.58,0-8.27-1.03-11.09-3.09-2.82-2.06-4.18-5.16-4.08-9.3ZM135.01,42.57c0,5.04,1,8.71,3,11.02,2,2.31,4.5,3.47,7.52,3.47s5.49-1.15,7.52-3.45c2.02-2.3,3.04-5.91,3.04-10.82s-1.04-8.24-3.13-10.62c-2.08-2.38-4.6-3.58-7.53-3.58s-5.35,1.17-7.37,3.52c-2.02,2.35-3.04,5.84-3.04,10.46Z" style="fill: #ffb500;"/>
  <path d="M172.01,16.95v-7.48h6.5v7.48h-6.5ZM172.01,62.44V24.07h6.5v38.37h-6.5Z" style="fill: #ffb500;"/>
  <path d="M202.62,56.62l.94,5.75c-1.83.38-3.47.58-4.91.58-2.36,0-4.19-.37-5.49-1.12s-2.22-1.73-2.75-2.94c-.53-1.22-.79-3.78-.79-7.68v-22.08h-4.77v-5.06h4.77v-9.5l6.47-3.9v13.41h6.54v5.06h-6.54v22.44c0,1.86.11,3.05.34,3.58.23.53.6.95,1.12,1.26.52.31,1.26.47,2.22.47.72,0,1.67-.08,2.85-.25Z" style="fill: #ffb500;"/>
  <path d="M234.01,57.71c-2.41,2.05-4.73,3.49-6.96,4.34-2.23.84-4.62,1.26-7.17,1.26-4.22,0-7.46-1.03-9.72-3.09-2.26-2.06-3.4-4.69-3.4-7.89,0-1.88.43-3.6,1.28-5.15.85-1.55,1.98-2.8,3.36-3.74,1.38-.94,2.94-1.65,4.68-2.13,1.28-.34,3.2-.66,5.78-.98,5.25-.63,9.12-1.37,11.6-2.24.02-.89.04-1.46.04-1.7,0-2.65-.61-4.52-1.84-5.6-1.66-1.47-4.13-2.2-7.41-2.2-3.06,0-5.32.54-6.77,1.61-1.46,1.07-2.54,2.97-3.23,5.69l-6.36-.87c.58-2.72,1.53-4.92,2.85-6.59,1.32-1.67,3.24-2.96,5.75-3.87,2.5-.9,5.41-1.36,8.71-1.36s5.94.39,7.98,1.16c2.05.77,3.55,1.74,4.52,2.91.96,1.17,1.64,2.64,2.02,4.43.22,1.11.33,3.11.33,6v8.67c0,6.05.14,9.87.42,11.47.28,1.6.82,3.14,1.64,4.61h-6.79c-.67-1.35-1.11-2.93-1.3-4.73ZM233.47,43.18c-2.36.96-5.9,1.78-10.62,2.46-2.67.39-4.56.82-5.67,1.3-1.11.48-1.96,1.19-2.57,2.11-.6.93-.9,1.96-.9,3.09,0,1.73.66,3.18,1.97,4.34,1.31,1.16,3.23,1.73,5.76,1.73s4.73-.55,6.68-1.64c1.95-1.1,3.38-2.6,4.3-4.5.7-1.47,1.05-3.64,1.05-6.5v-2.38Z" style="fill: #ffb500;"/>
  <path d="M249.99,62.44V9.47h6.5v52.97h-6.5Z" style="fill: #ffb500;"/>
  <path d="M288.07,62.44V9.47h23.49c4.72,0,8.31.48,10.77,1.43,2.46.95,4.42,2.63,5.89,5.04,1.47,2.41,2.2,5.07,2.2,7.99,0,3.76-1.22,6.93-3.65,9.5-2.43,2.58-6.19,4.22-11.27,4.91,1.85.89,3.26,1.77,4.23,2.64,2.05,1.88,3.99,4.23,5.82,7.05l9.21,14.42h-8.82l-7.01-11.02c-2.05-3.18-3.73-5.61-5.06-7.3-1.33-1.69-2.51-2.87-3.56-3.54-1.05-.67-2.11-1.14-3.2-1.41-.79-.17-2.1-.25-3.9-.25h-8.13v23.52h-7.01ZM295.08,32.85h15.07c3.2,0,5.71-.33,7.52-.99,1.81-.66,3.18-1.72,4.12-3.18.94-1.46,1.41-3.04,1.41-4.75,0-2.5-.91-4.56-2.73-6.18-1.82-1.61-4.69-2.42-8.62-2.42h-16.77v17.52Z" style="fill: #ffb500;"/>
  <path d="M370.85,56.19c-2.14,2.38-4.48,4.17-7.01,5.37-2.53,1.19-5.26,1.79-8.2,1.79-5.42,0-9.72-1.83-12.9-5.49-2.58-2.99-3.87-6.32-3.87-10.01,0-3.28,1.05-6.23,3.16-8.87,2.11-2.64,5.26-4.96,9.45-6.96-2.38-2.75-3.97-4.97-4.77-6.68-.79-1.71-1.19-3.36-1.19-4.95,0-3.18,1.25-5.94,3.74-8.29,2.49-2.35,5.63-3.52,9.41-3.52s6.57,1.11,8.87,3.32c2.3,2.22,3.45,4.88,3.45,7.99,0,5.04-3.34,9.33-10.01,12.9l9.5,12.1c1.08-2.12,1.93-4.58,2.53-7.37l6.76,1.45c-1.16,4.62-2.72,8.43-4.7,11.42,2.43,3.23,5.19,5.94,8.27,8.13l-4.37,5.17c-2.63-1.69-5.34-4.18-8.13-7.48ZM366.77,51.06l-11.92-14.78c-3.52,2.1-5.89,4.04-7.12,5.84-1.23,1.79-1.84,3.57-1.84,5.33,0,2.14.86,4.37,2.57,6.68s4.13,3.47,7.26,3.47c1.95,0,3.97-.61,6.05-1.82,2.08-1.22,3.75-2.79,5-4.72ZM357.62,28.58c2.82-1.66,4.64-3.12,5.47-4.37.83-1.25,1.25-2.64,1.25-4.16,0-1.81-.57-3.28-1.72-4.43-1.14-1.14-2.57-1.72-4.28-1.72s-3.22.57-4.39,1.7c-1.17,1.13-1.75,2.52-1.75,4.16,0,.82.21,1.68.63,2.58.42.9,1.05,1.86,1.9,2.87l2.89,3.36Z" style="fill: #ffb500;"/>
  <path d="M390.76,62.44V9.47h18.25c4.12,0,7.26.25,9.43.76,3.04.7,5.62,1.96,7.77,3.79,2.79,2.36,4.88,5.38,6.27,9.05,1.38,3.67,2.08,7.87,2.08,12.59,0,4.02-.47,7.59-1.41,10.7s-2.14,5.68-3.61,7.71c-1.47,2.04-3.08,3.64-4.82,4.81-1.75,1.17-3.85,2.05-6.32,2.66-2.47.6-5.31.9-8.51.9h-19.11ZM397.77,56.19h11.31c3.49,0,6.23-.33,8.22-.98s3.57-1.57,4.75-2.75c1.66-1.66,2.96-3.9,3.88-6.7.93-2.81,1.39-6.21,1.39-10.21,0-5.54-.91-9.8-2.73-12.77-1.82-2.97-4.03-4.97-6.63-5.98-1.88-.72-4.9-1.08-9.07-1.08h-11.13v40.47Z" style="fill: #ffb500;"/>
  <path d="M24.53,9.7c-.24-1.34-1.52-2.24-2.87-2-7.06,1.25-12.66,6.78-13.94,13.76-.25,1.34.64,2.63,1.99,2.88,1.35.25,2.63-.65,2.88-1.99.91-4.95,4.9-8.88,9.94-9.77,1.34-.24,2.24-1.52,2-2.87h0Z" style="fill: #ffb500;"/>
  <path d="M24.74,21.45c-4.09,0-7.42,3.33-7.42,7.42,0,3.22,2.07,5.94,4.95,6.97v15.3h4.95v-15.3c2.87-1.02,4.95-3.75,4.95-6.97,0-4.09-3.33-7.42-7.42-7.42h-.01ZM24.74,31.35c-1.36,0-2.47-1.11-2.47-2.47s1.11-2.47,2.47-2.47,2.47,1.11,2.47,2.47-1.11,2.47-2.47,2.47Z" style="fill: #ffb500;"/>
  <path d="M12.37,56.08v2.47c0,3.23,2.07,5.95,4.95,6.97v2.93c0,4.09,3.33,7.42,7.42,7.42s7.42-3.33,7.42-7.42v-2.93c2.88-1.02,4.95-3.74,4.95-6.97v-2.47H12.37Z" style="fill: #ffb500;"/>
  <path d="M42.23,7.24C37.55,2.57,31.34,0,24.74,0h-.02C12.77.02,2.55,8.47.42,20.12c-1.6,8.74,1.42,17.4,8.07,23.18,1.88,1.63,3.17,4.87,3.66,7.84h5c-.51-4.07-2.26-8.82-5.42-11.57-5.32-4.62-7.73-11.56-6.45-18.56C6.99,11.71,15.16,4.96,24.72,4.95c5.3,0,10.27,2.06,14.01,5.79,3.74,3.74,5.8,8.71,5.8,14,0,5.67-2.48,11.08-6.8,14.83-3.16,2.74-4.9,7.49-5.41,11.56h5c.49-2.96,1.77-6.2,3.65-7.82,5.41-4.69,8.51-11.46,8.51-18.57,0-6.61-2.58-12.83-7.25-17.5Z" style="fill: #ffb500;"/>
</svg>