<?xml version="1.0" encoding="UTF-8"?>
<svg id="Layer_1" data-name="Layer 1" xmlns="http://www.w3.org/2000/svg" width="713.92" height="179.16" viewBox="0 0 713.92 179.16">
  <path d="M183.31,125.23c-8.52,0-14.05-2.23-14.12-9.35.07-4.11,0-53.97,0-53.97h35.6v-26.05h-35.6V0h-25.99v35.87H53.17s-36.72-1.56-36.72,35.43,36.72,35.32,36.72,35.32h43.62c7.62,0,9.22,6.3,9.22,9.3,0,2.9-1.63,9.34-9.22,9.34s-96.79,0-96.79,0v26.03h96.39s37.3,1.64,37.3-35.45-37.3-35.28-37.3-35.28h-43.42c-7.58.02-9.23-6.4-9.21-9.31.02-2.93,1.58-9.3,9.21-9.32,7.77.03,90.27,0,90.27,0l-.02,53.97s-3.12,35.4,34.01,35.4h27.57v-26.06h-21.49Z" style="fill: #0a0203;"/>
  <path d="M273.1,87.87h26.06v-17.07c0-36.48-36.04-34.96-36.04-34.96h-48.49v115.44h26.37l-.02-88.44,22.01-.03c6.68.02,10.1,3.82,10.1,11.33v13.73Z" style="fill: #0a0203;"/>
  <path d="M687.86,87.87h26.06v-17.07c0-36.48-36.04-34.96-36.04-34.96h-48.49v115.44h26.37l-.02-88.44,22.01-.03c6.68.02,10.1,3.82,10.1,11.33v13.73Z" style="fill: #0a0203;"/>
  <path d="M297.28,153.09v26.03h32.77c1.78.13,12.38.29,21.18-5.56,12.51-7.46,18.63-26.54,20.05-31.35,1.65-5.76,31.84-106.35,31.84-106.35h-28.78l-22.66,81.82-22.68-81.82h-28.78l32.03,106.32.83,2.67c1.21,3.86-.51,8.19-4.52,8.23h-31.26Z" style="fill: #0a0203;"/>
  <polygon points="437.19 79.6 437.19 0 411.17 0 411.17 151.29 437.19 151.29 437.19 118.83 451.96 100.43 480.6 151.29 510.41 151.29 470.53 80.25 507.17 35.86 473.28 35.86 437.19 79.6" style="fill: #0a0203;"/>
  <path d="M618.81,93.12c-.04-31.92-24.22-57.9-57.65-57.9-35.94.64-58.07,26.04-58.07,57.96.02,31.43,24.25,58.11,56.28,58.11h37.57v-26.05h-35.24c-13.46,0-28.27-9.76-29.97-21.85h86.15c.61-3.35.92-6.72.92-10.27ZM531.74,80.67c2.2-10.16,15.83-20.28,29.42-20.28s26.61,9.14,29.42,20.28h-58.84Z" style="fill: #0a0203;"/>
</svg>